HIERARCHY
ROOT Hips
{
    OFFSET 0.000000 0.000000 0.000000
    CHANNELS 6 Xposition Yposition Zposition Zrotation Xrotation Yrotation
        JOINT Chest
        {
            OFFSET -0.000000 29.391830 -0.000000
            CHANNELS 3 Zrotation Xrotation Yrotation
            JOINT Neck
            {
                OFFSET -0.000000 21.536943 0.000000
                CHANNELS 3 Zrotation Xrotation Yrotation
                JOINT Head
                {
                    OFFSET -0.000000 10.450000 0.000000
                    CHANNELS 3 Zrotation Xrotation Yrotation
                    End Site
                    {
                        OFFSET -0.000000 16.150003 0.000000
                    }
                }
            }
            JOINT LeftCollar
            {
                OFFSET -0.000000 21.536943 0.000000
                CHANNELS 3 Zrotation Xrotation Yrotation
                JOINT LeftShoulder
                {
                    OFFSET 19.500000 -0.000000 0.000000
                    CHANNELS 3 Zrotation Xrotation Yrotation
                    JOINT LeftElbow
                    {
                        OFFSET 20.632557 0.000000 0.000000
                        CHANNELS 3 Zrotation Xrotation Yrotation
                        JOINT LeftWrist
                        {
                            OFFSET 24.683100 0.000000 0.000000
                            CHANNELS 3 Zrotation Xrotation Yrotation
                            End Site
                            {
                                OFFSET 0.000000 -14.250000 0.000000
                            }
                        }
                    }
                }
            }
            JOINT RightCollar
            {
                OFFSET -0.000000 21.536943 0.000000
                CHANNELS 3 Zrotation Xrotation Yrotation
                JOINT RightShoulder
                {
                    OFFSET -19.500000 0.000000 0.000000
                    CHANNELS 3 Zrotation Xrotation Yrotation
                    JOINT RightElbow
                    {
                        OFFSET -20.632557 0.000000 0.000000
                        CHANNELS 3 Zrotation Xrotation Yrotation
                        JOINT RightWrist
                        {
                            OFFSET -24.683100 0.000000 0.000000
                            CHANNELS 3 Zrotation Xrotation Yrotation
                            End Site
                            {
                                OFFSET -0.000000 -14.250000 0.000000
                            }
                        }
                    }
                }
            }
        }
    JOINT LeftHip
    {
        OFFSET 11.400001 0.000000 0.000000
        CHANNELS 3 Zrotation Xrotation Yrotation
        JOINT LeftKnee
        {
            OFFSET -0.000000 -38.134491 0.000000
            CHANNELS 3 Zrotation Xrotation Yrotation
            JOINT LeftAnkle
            {
                OFFSET -0.000000 -39.452507 0.000000
                CHANNELS 3 Zrotation Xrotation Yrotation
                End Site
                {
                    OFFSET -0.000000 -4.750000 16.150003
                }
            }
        }
    }
    JOINT RightHip
    {
        OFFSET -11.400001 0.000000 0.000000
        CHANNELS 3 Zrotation Xrotation Yrotation
        JOINT RightKnee
        {
            OFFSET -0.000000 -38.134491 0.000000
            CHANNELS 3 Zrotation Xrotation Yrotation
            JOINT RightAnkle
            {
                OFFSET -0.000000 -39.452507 0.000000
                CHANNELS 3 Zrotation Xrotation Yrotation
                End Site
                {
                    OFFSET -0.000000 -4.750000 16.150003
                }
            }
        }
    }
}
MOTION
Frames:    5
Frame Time:    0.010000
-7.521166    84.765160    26.847134    5.296650    5.111915    -31.895790    4.143400    12.027310    -7.527408    -11.112342    -3.004234    -6.703315    7.153400    -8.830024    -6.086576    -17.156765    -1.279766    8.599001    -15.243301    44.222248    -58.463764    15.479740    -12.557294    -78.103798    111.719742    7.654403    23.975447    24.846170    -0.904797    -3.950346    -30.416235    60.662888    74.379906    -27.886719    -13.342374    50.306091    -128.277618    -14.481964    -23.303955    -0.691871    -12.588559    4.086279    -0.719872    25.431555    5.339165    3.211565    -15.526500    11.615308    -9.690627    -27.818859    8.817404    -1.875250    34.028721    -6.632823    15.437359    -15.322949    1.059069    
-7.341924    84.773201    26.981148    5.436437    5.138732    -32.220383    4.021049    11.956916    -7.760632    -12.147972    -3.257003    -5.081807    8.642508    -10.708179    -3.864363    -17.461613    -1.569448    11.694710    -15.179956    43.654366    -58.905132    15.733944    -12.887488    -77.803482    111.298882    7.586214    24.103493    24.542562    -0.555142    -1.010454    -30.669569    61.692528    74.432518    -27.374542    -13.084707    51.156090    -127.776772    -14.825436    -22.753630    -0.938064    -12.688379    3.846919    -0.815588    25.532980    5.704670    3.132527    -15.479341    11.700168    -9.848584    -28.034967    8.957767    -1.805632    34.029099    -6.623235    15.149637    -15.068031    0.930963    
-7.285713    84.756454    27.035257    5.437418    5.140265    -32.381474    4.072780    11.984395    -7.813809    -12.298525    -3.594754    -4.999841    8.574381    -9.927283    -3.863449    -17.365782    -1.690897    11.913525    -14.343629    44.128445    -59.868614    16.101469    -13.196692    -77.377922    111.238304    7.823317    24.459387    24.527754    -0.389344    -1.014366    -30.686647    61.554951    74.370056    -27.522024    -13.325621    51.035908    -127.612450    -15.033420    -22.595734    -0.934537    -12.710711    3.896096    -0.886621    25.617483    5.609190    2.964389    -15.463609    11.683713    -9.809536    -28.053747    9.173719    -1.779926    33.985218    -6.725791    15.181956    -14.929065    0.910648    
-7.191489    84.762993    27.117447    5.489359    5.152382    -32.593601    4.114943    11.927823    -7.940712    -12.318232    -3.553985    -4.909129    8.473260    -9.966661    -3.781554    -17.345505    -1.756657    11.905513    -14.067181    44.324341    -60.154572    16.271784    -13.185049    -77.222771    111.365746    8.125930    24.893988    24.506828    -0.312331    -1.082420    -30.428202    61.516758    74.016869    -27.630823    -13.393695    51.095512    -127.319885    -15.217808    -22.454002    -1.017109    -12.754781    3.857977    -0.972579    25.687914    5.779535    2.853244    -15.453125    11.691111    -9.842079    -28.157419    9.253270    -1.801791    33.980762    -6.645637    15.180875    -14.788153    0.846009    
-7.081107    84.772972    27.217079    5.547917    5.167483    -32.853634    4.169650    11.875914    -8.105366    -12.330400    -3.556289    -4.775754    8.336074    -9.986469    -3.657591    -17.340477    -1.790615    11.912092    -13.829395    44.441269    -60.416843    16.390015    -13.186512    -77.089798    111.423645    8.373045    25.230719    24.465040    -0.271950    -1.136194    -30.168514    61.534618    73.657791    -27.672005    -13.475011    51.244423    -127.095757    -15.333482    -22.254868    -1.108384    -12.799581    3.839112    -1.074364    25.761219    6.002809    2.715293    -15.447580    11.687453    -9.874866    -28.280153    9.337775    -1.835530    33.973030    -6.527444    15.199765    -14.625486    0.775396    
